<?xml version="1.0" encoding="utf-8"?>
<!-- Generator: Adobe Illustrator 28.0.0, SVG Export Plug-In . SVG Version: 6.00 Build 0)  -->
<svg version="1.1" id="Capa_1" xmlns="http://www.w3.org/2000/svg" xmlns:xlink="http://www.w3.org/1999/xlink" x="0px" y="0px"
	 viewBox="0 0 512 512" style="enable-background:new 0 0 512 512;" xml:space="preserve">
<style type="text/css">
	.st0{fill:#212121;}
	.st1{fill:#E1DFDD;}
</style>
<g>
	<path class="st0" d="M37.9,504.6C21,504.6,7.4,491,7.4,474.1V37.9C7.4,21,21,7.4,37.9,7.4h436.3c16.8,0,30.5,13.7,30.5,30.5v436.3
		c0,16.8-13.7,30.5-30.5,30.5H37.9z"/>
	<path d="M474.1,7.9c16.5,0,30,13.5,30,30v436.3c0,16.5-13.5,30-30,30H37.9c-16.5,0-30-13.5-30-30V37.9c0-16.5,13.5-30,30-30H474.1
		 M474.1,6.9H37.9c-17.1,0-31,13.9-31,31v436.3c0,17.1,13.9,31,31,31h436.3c17.1,0,31-13.9,31-31V37.9
		C505.1,20.7,491.3,6.9,474.1,6.9L474.1,6.9z"/>
</g>
<g>
	<path class="st1" d="M210,304l14.4,72h-29.5L183,311.9c-2.5-13.2-6.7-22-12.7-26.4c-6-4.4-16.6-6.6-31.8-6.6H65.9v97.2H37.1V135.8
		h102.5c23.8,0,43,5.6,57.6,16.8c14.6,11.2,21.9,25.9,21.9,44.1c0,16.6-5.3,30.5-15.8,41.6c-10.5,11.1-24.4,17.3-41.6,18.7v2.2
		c15.3,1,26.4,4.9,33.3,11.7C202,277.6,207,288.7,210,304z M65.9,252.9h72c15.5,0,28-4.3,37.5-13c9.5-8.7,14.2-20,14.2-34.1
		c0-13.2-4.7-23.8-14.2-31.8c-9.4-8-22-12.1-37.6-12.1h-72V252.9z"/>
	<path class="st1" d="M444.1,323.3h-2.2c-14.4,38.9-42.8,58.3-85.1,58.3c-14.4,0-27.7-2.2-39.9-6.5c-12.2-4.3-22.7-10.3-31.4-18
		c-8.8-7.7-16.2-16.8-22.4-27.3c-6.1-10.5-10.7-22-13.7-34.4c-3-12.5-4.4-25.6-4.4-39.5c0-13.4,1.4-26.1,4.1-38.1
		c2.7-12,7.2-23.4,13.3-34.2c6.1-10.8,13.7-20,22.8-27.8c9-7.8,20.3-13.9,33.7-18.5c13.4-4.6,28.3-6.9,44.7-6.9
		c13.3,0,25.6,1.8,36.9,5.3c11.3,3.5,21,8.2,28.9,14.1c7.9,5.9,14.9,12.7,20.9,20.5c6,7.8,10.6,15.9,13.8,24.2
		c3.2,8.3,5.4,16.9,6.5,25.7h-30.2c-1.8-8.7-4.7-16.8-8.7-24.3c-4-7.5-9.2-14.2-15.4-20c-6.3-5.9-13.9-10.5-23-13.8
		c-9.1-3.4-19.1-5-30.1-5c-12.8,0-24.4,1.8-34.6,5.5s-18.7,8.6-25.4,14.8c-6.7,6.2-12.3,13.6-16.8,22.2c-4.5,8.6-7.7,17.5-9.6,26.8
		c-1.9,9.3-2.8,19.1-2.8,29.5c0,10.3,1,20.1,2.9,29.4c2,9.3,5.2,18.3,9.7,26.8c4.5,8.5,10.2,15.9,17,22.2
		c6.8,6.3,15.4,11.2,25.8,14.9c10.4,3.7,22.1,5.5,35,5.5c11.5,0,22.4-2,32.7-6.1c10.3-4.1,18.9-9.4,26-16.1
		c7-6.6,12.6-14.2,16.7-22.7c4.1-8.5,6.1-17.1,6.1-25.8v-5.5h-95.8v-26h124.7v123.5h-27.8L444.1,323.3z"/>
</g>
</svg>
