<?xml version="1.0" encoding="utf-8"?>
<!-- Generator: Adobe Illustrator 28.0.0, SVG Export Plug-In . SVG Version: 6.00 Build 0)  -->
<svg version="1.1" id="Capa_1" xmlns="http://www.w3.org/2000/svg" xmlns:xlink="http://www.w3.org/1999/xlink" x="0px" y="0px"
	 viewBox="0 0 1500 2000" style="enable-background:new 0 0 1500 2000;" xml:space="preserve">
<style type="text/css">
	.st0{fill:#121212;}
	.st1{fill:#83FFFF;}
</style>
<rect class="st0" width="1500" height="2000"/>
<g id="Capa_1-2">
	<g id="XorIoQ.tif">
		<path class="st1" d="M291.2,1043.6c-8.7-67.4,55-117.2,49.5-177.9c-134.9-411.1,81.2-331.2,328.8-149.2
			c115-14.7,210.6,37.6,313,72.8c76.2,0.7,285.3-23.1,272,86.9c-19.5,73.7-84.8,123.9-111.6,190.5
			c1.5,152.7-165.1,229.8-279.2,295.3c-59.3,21.9-121.7,75.8-185.3,69.4C530.5,1334,328.2,1232.6,291.2,1043.6z M458,892.4
			c-54.9,179.5,59,402.4,260.5,326.6C663.8,1086.9,572.7,984.5,458,892.4z M806.2,1230.8c111.6,58.6,272.6-48.7,217.6-166.8
			C935.1,1099.4,865.8,1158.9,806.2,1230.8z"/>
	</g>
</g>
</svg>
