<?xml version="1.0" encoding="utf-8"?>
<!-- Generator: Adobe Illustrator 28.0.0, SVG Export Plug-In . SVG Version: 6.00 Build 0)  -->
<svg version="1.1" id="Capa_1" xmlns="http://www.w3.org/2000/svg" xmlns:xlink="http://www.w3.org/1999/xlink" x="0px" y="0px"
	 viewBox="0 0 512 512" style="enable-background:new 0 0 512 512;" xml:space="preserve">
<style type="text/css">
	.st0{fill:#212121;}
	.st1{fill:#E1DFDD;}
</style>
<g>
	<path class="st0" d="M141.7,504.6c-74.1,0-134.3-60.3-134.3-134.3V141.7C7.4,67.6,67.6,7.4,141.7,7.4h228.6
		c74.1,0,134.3,60.3,134.3,134.3v228.6c0,74.1-60.3,134.3-134.3,134.3H141.7z"/>
	<path d="M370.3,7.9c35.8,0,69.4,13.9,94.6,39.2c25.3,25.3,39.2,58.9,39.2,94.6v228.6c0,35.8-13.9,69.4-39.2,94.6
		c-25.3,25.3-58.9,39.2-94.6,39.2H141.7c-35.8,0-69.4-13.9-94.6-39.2c-25.3-25.3-39.2-58.9-39.2-94.6V141.7
		c0-35.8,13.9-69.4,39.2-94.6c25.3-25.3,58.9-39.2,94.6-39.2H370.3 M370.3,6.9H141.7C67.2,6.9,6.9,67.2,6.9,141.7v228.6
		c0,74.5,60.4,134.8,134.8,134.8h228.6c74.5,0,134.8-60.4,134.8-134.8V141.7C505.1,67.2,444.8,6.9,370.3,6.9L370.3,6.9z"/>
</g>
<g>
	<path class="st1" d="M336,304.5l14.6,72.8h-29.8l-12-64.8c-2.5-13.3-6.7-22.2-12.8-26.7c-6-4.5-16.7-6.7-32.1-6.7h-73.4v98.1h-29.1
		V134.6H265c24,0,43.4,5.6,58.1,16.9c14.7,11.3,22.1,26.1,22.1,44.5c0,16.8-5.3,30.8-15.9,42.1c-10.6,11.2-24.6,17.5-42,18.9v2.2
		c15.5,1,26.7,5,33.7,11.8C328,277.9,333,289.1,336,304.5z M190.5,252.9h72.8c15.7,0,28.3-4.4,37.9-13.1
		c9.6-8.7,14.4-20.2,14.4-34.4c0-13.3-4.8-24-14.3-32.2c-9.5-8.1-22.2-12.2-38-12.2h-72.8V252.9z"/>
</g>
</svg>
